<?xml version="1.0" encoding="UTF-8"?><svg id="Layer_1" xmlns="http://www.w3.org/2000/svg" viewBox="0 0 100 100"><defs>
<style>.cls-1{fill:#80b6e2;}.cls-1,.cls-2{stroke-width:0px;}.cls-2{fill:#046baa;}</style></defs>
<path class="cls-1" d="m42.36,17.12h-26.34c-8.22,0-14.89,6.67-14.89,14.89s6.67,14.89,14.89,14.89h30.92v-16.03h-4.58v-13.74Z"/>
<path class="cls-1" d="m16.02,1.09C7.8,1.09,1.13,7.76,1.13,15.98s6.67,14.89,14.89,14.89h26.34v-13.74h4.58V1.09h-30.92Z"/>
<path class="cls-2" d="m3.48,23.99c2.65-4.13,7.27-6.87,12.54-6.87h26.34v13.74h-26.34c-5.27,0-9.9-2.74-12.54-6.87"/>
<path class="cls-1" d="m98.87,23.99c0,12.65-10.25,22.9-22.9,22.9s-22.9-10.25-22.9-22.9S63.32,1.09,75.96,1.09s22.9,10.25,22.9,22.9"/>
<path class="cls-2" d="m87.41,23.99c0,6.32-5.13,11.45-11.45,11.45s-11.45-5.13-11.45-11.45,5.13-11.45,11.45-11.45,11.45,5.13,11.45,11.45"/>
<rect class="cls-2" x="64.51" y="62.23" width="22.9" height="27.39"/><rect class="cls-2" x="64.51" y="53.1" width="22.9" height="13.74"/>
<rect class="cls-1" x="53.06" y="53.1" width="11.45" height="13.74"/><rect class="cls-1" x="87.42" y="53.1" width="11.45" height="13.74"/>
<rect class="cls-2" x="64.51" y="85.17" width="22.9" height="13.74"/><rect class="cls-1" x="53.06" y="85.17" width="11.45" height="13.74"/>
<rect class="cls-1" x="87.42" y="85.17" width="11.45" height="13.74"/><path class="cls-2" d="m1.18,69.13c.59,7.69,7.01,13.74,14.85,13.74h30.88c-.59-7.69-7.01-13.74-14.84-13.74H1.18Z"/>
<path class="cls-1" d="m16.02,53.1c-8.22,0-14.89,6.66-14.89,14.89,0,.38.01.77.04,1.15h45.77v-16.03h-30.92Z"/><path class="cls-1" d="m46.9,82.88H1.13v16.03h30.92c8.22,0,14.89-6.67,14.89-14.89,0-.38-.01-.77-.04-1.15"/>
</svg>